<?xml version="1.0" standalone="no"?>
<!DOCTYPE svg PUBLIC "-//W3C//DTD SVG 20010904//EN"
 "http://www.w3.org/TR/2001/REC-SVG-20010904/DTD/svg10.dtd">
<svg version="1.0" xmlns="http://www.w3.org/2000/svg"
 width="453.000000pt" height="453.000000pt" viewBox="0 0 453.000000 453.000000"
 preserveAspectRatio="xMidYMid meet">
<metadata>
Created by potrace 1.14, written by Peter Selinger 2001-2017
</metadata>
<g transform="translate(0.000000,453.000000) scale(0.100000,-0.100000)"
fill="#000000" stroke="none">
<path d="M4225 2894 c-59 -35 -201 -90 -291 -113 -119 -30 -205 -42 -322 -43
-133 -1 -152 1 -472 57 -107 19 -208 37 -225 39 -16 3 -70 12 -120 20 -236 39
-346 50 -525 49 -193 0 -305 -23 -551 -113 -157 -57 -429 -175 -429 -185 0 -3
24 5 53 16 215 85 515 169 690 193 122 16 304 13 423 -8 110 -19 428 -82 654
-130 233 -48 337 -59 502 -53 154 5 233 22 348 72 80 35 208 118 275 179 55
50 51 57 -10 20z"/>
<path d="M4105 2661 c-34 -33 -244 -88 -353 -93 -72 -3 -83 -13 -17 -17 107
-5 296 -73 411 -146 30 -19 57 -35 59 -35 13 0 0 66 -33 174 -36 116 -47 136
-67 117z"/>
<path d="M3040 2639 c-19 -4 -51 -11 -70 -14 -19 -3 -46 -7 -60 -10 -49 -9
-227 -29 -340 -40 -235 -21 -665 -25 -940 -10 -339 19 -626 9 -805 -29 -79
-17 -161 -39 -224 -60 -85 -30 -213 -87 -207 -93 2 -2 51 11 107 31 108 36
211 59 339 75 72 10 650 7 795 -3 39 -3 115 -8 170 -11 55 -4 120 -8 145 -11
74 -6 432 -5 501 1 285 26 549 95 639 165 23 18 23 19 5 19 -11 -1 -36 -5 -55
-10z"/>
<path d="M3150 2525 c-47 -7 -164 -32 -260 -54 -260 -59 -368 -79 -550 -101
-76 -9 -582 -6 -655 4 -22 3 -62 8 -90 11 -74 7 -137 15 -165 21 -18 3 -21 2
-10 -5 31 -18 281 -68 440 -87 179 -21 492 -25 690 -9 109 9 393 12 477 6 l72
-6 36 47 c41 56 119 119 187 154 26 13 48 27 48 29 0 9 -135 3 -220 -10z"/>
<path d="M3545 2500 c-52 -8 -141 -49 -184 -86 -33 -27 -91 -108 -91 -126 0
-5 20 11 44 35 129 126 305 157 478 83 20 -9 64 -39 98 -67 56 -46 60 -48 46
-21 -67 130 -230 206 -391 182z"/>
<path d="M943 2459 c-93 -17 -195 -85 -230 -153 l-15 -31 28 26 c90 81 182
113 309 107 74 -3 101 -9 155 -34 36 -17 83 -46 104 -65 l39 -34 -16 32 c-24
46 -102 110 -163 133 -61 22 -147 30 -211 19z"/>
<path d="M527 2389 c-78 -12 -179 -46 -225 -76 -50 -33 -54 -46 -9 -38 17 3
73 8 122 12 50 3 97 9 106 12 21 8 109 82 109 92 0 9 -35 8 -103 -2z"/>
<path d="M197 2089 c-116 -26 -188 -117 -188 -238 -1 -210 224 -315 404 -189
15 11 27 23 27 27 0 5 -14 22 -30 40 l-31 31 -43 -25 c-97 -57 -195 -14 -212
93 -21 132 114 211 226 132 25 -18 26 -18 59 22 33 39 34 41 15 55 -65 49
-151 69 -227 52z"/>
<path d="M673 2073 c-4 -10 -49 -115 -99 -233 -51 -118 -90 -218 -88 -222 3
-4 27 -7 54 -7 l49 2 22 53 21 54 97 0 96 0 21 -53 22 -52 57 -3 c50 -2 56 0
51 15 -3 10 -48 117 -99 238 l-94 220 -52 3 c-42 3 -52 0 -58 -15z m87 -192
c11 -29 19 -56 16 -58 -9 -9 -96 -8 -96 2 0 21 45 124 52 117 3 -4 16 -31 28
-61z"/>
<path d="M1048 2077 c-3 -10 -3 -418 1 -454 1 -16 98 -15 104 1 2 6 3 39 2 74
l-2 62 41 0 c40 0 42 -2 88 -73 l48 -73 60 -1 c33 -1 60 2 60 7 0 5 -22 41
-50 81 -27 40 -50 76 -50 80 0 4 9 11 20 14 11 4 31 23 45 43 48 71 27 181
-43 224 -32 20 -51 22 -178 25 -105 2 -143 -1 -146 -10z m252 -100 c19 -9 26
-22 28 -49 4 -51 -23 -68 -108 -68 l-66 0 2 63 c1 34 2 63 3 65 4 8 120 -1
141 -11z"/>
<path d="M1755 2079 c-43 -12 -112 -74 -137 -123 -45 -87 -21 -225 49 -287 54
-47 99 -62 179 -63 58 0 82 6 128 28 31 15 60 35 64 44 7 13 9 173 3 203 -2
12 -190 7 -199 -5 -4 -6 -8 -27 -8 -46 l1 -35 53 -3 c50 -3 52 -4 52 -32 0
-37 -28 -53 -91 -53 -85 0 -139 55 -139 143 0 114 110 175 212 118 l40 -23 33
40 c19 21 31 43 28 48 -3 5 -29 20 -57 33 -54 25 -150 31 -211 13z"/>
<path d="M2285 2057 c-40 -86 -185 -432 -185 -439 0 -4 24 -8 54 -8 l54 0 21
53 22 53 96 -1 95 0 22 -53 21 -52 58 0 57 0 -13 33 c-121 287 -181 424 -188
433 -5 6 -30 12 -55 12 -41 1 -46 -1 -59 -31z m109 -223 c6 -18 2 -20 -41 -18
-27 1 -51 2 -55 3 -4 0 5 30 20 66 l27 65 21 -47 c12 -27 24 -57 28 -69z"/>
<path d="M2670 2080 c-4 -3 -7 -109 -7 -235 l2 -230 53 -3 52 -3 0 75 0 76 40
0 c38 0 41 -3 90 -75 l51 -75 59 0 c33 0 60 3 60 6 0 3 -24 41 -53 83 l-54 78
32 20 c65 43 85 157 38 221 -37 52 -82 65 -225 66 -71 1 -133 -1 -138 -4z
m262 -120 c23 -29 23 -55 -2 -80 -16 -16 -33 -20 -90 -20 l-70 0 0 64 0 63 72
-2 c61 -2 74 -6 90 -25z"/>
<path d="M3305 2080 c-11 -18 -195 -454 -195 -462 0 -4 24 -8 54 -8 l53 0 20
52 20 53 98 0 98 0 20 -52 20 -53 58 0 59 0 -13 33 c-137 322 -181 424 -189
434 -11 13 -95 16 -103 3z m79 -199 c14 -36 26 -65 26 -66 0 -7 -100 3 -100
10 -1 13 42 127 45 123 2 -2 15 -32 29 -67z"/>
<path d="M3765 2070 c-94 -47 -139 -119 -139 -225 0 -114 52 -188 157 -225 41
-14 72 -19 114 -15 63 5 158 46 171 73 7 14 8 115 3 194 -1 15 -14 16 -103 15
l-102 -2 -1 -47 -1 -48 53 0 c52 0 53 -1 53 -30 0 -81 -174 -70 -214 15 -66
138 65 266 196 193 l39 -22 34 39 c31 37 33 41 17 54 -67 53 -201 69 -277 31z"/>
<path d="M4168 2070 c-3 -13 -2 -430 1 -452 1 -5 81 -8 180 -8 l178 0 0 50 0
49 -126 3 -126 3 0 43 -1 42 107 0 c116 0 116 0 114 60 l-1 35 -110 5 -110 5
1 40 0 40 125 5 125 5 -1 40 c-1 22 -2 42 -3 45 -1 3 -80 5 -175 5 -148 0
-175 -2 -178 -15z"/>
</g>
</svg>
